<svg width="20" height="20" viewBox="0 0 20 20" xmlns="http://www.w3.org/2000/svg">
<path d="M10 2.8125C10.663 2.8125 11.2989 3.07589 11.7678 3.54473C12.2366 4.01357 12.5 4.64946 12.5 5.3125C12.5 5.97554 12.2366 6.61143 11.7678 7.08027C11.2989 7.54911 10.663 7.8125 10 7.8125C9.33696 7.8125 8.70107 7.54911 8.23223 7.08027C7.76339 6.61143 7.5 5.97554 7.5 5.3125C7.5 4.64946 7.76339 4.01357 8.23223 3.54473C8.70107 3.07589 9.33696 2.8125 10 2.8125ZM8.125 9.0625H11.875C12.538 9.0625 13.1739 9.32589 13.6428 9.79473C14.1116 10.2636 14.375 10.8995 14.375 11.5625V17.1875H12.5H7.5H5.625V11.5625C5.625 10.8995 5.88839 10.2636 6.35723 9.79473C6.82607 9.32589 7.46196 9.0625 8.125 9.0625Z"/>
</svg>
