<svg width="20" height="20" viewBox="0 0 20 20" xmlns="http://www.w3.org/2000/svg">
<path d="M11.7678 3.54473C11.2989 3.07589 10.663 2.8125 10 2.8125C9.33696 2.8125 8.70107 3.07589 8.23223 3.54473C7.76339 4.01357 7.5 4.64946 7.5 5.3125C7.5 5.97554 7.76339 6.61143 8.23223 7.08027C8.70107 7.54911 9.33696 7.8125 10 7.8125C10.663 7.8125 11.2989 7.54911 11.7678 7.08027C12.2366 6.61143 12.5 5.97554 12.5 5.3125C12.5 4.64946 12.2366 4.01357 11.7678 3.54473Z"/>
<path d="M5.625 17.1875H8.125H11.875H14.375L12.3875 10.825C12.075 9.8 11.125 9.0625 10 9.0625C8.875 9.0625 7.925 9.8 7.6125 10.825L5.625 17.1875Z"/>
</svg>
